<svg xmlns="http://www.w3.org/2000/svg" width="762" height="762" viewBox="0 0 762 762" fill="none"><mask id="mask0_1_4" style="mask-type:luminance" maskUnits="userSpaceOnUse" x="0" y="0" width="762" height="762"><path d="M761.6 0H0V761.6H761.6V0Z" fill="white"></path></mask><g mask="url(#mask0_1_4)"><path d="M66.2313 349.022C64.7914 331.558 50.7231 317.302 33.199 317.302C15.6749 317.302 1.351 331.556 2.58459 349.036C18.1151 569.112 193.918 744.947 413.99 760.483C431.473 761.717 445.729 747.391 445.729 729.865C445.729 712.338 431.471 698.268 414.004 696.827C228.984 681.568 81.4857 534.045 66.2313 349.022Z" fill="url(#paint0_linear_1_4)"></path><path d="M760 316.369C760 379.323 741.332 440.863 706.357 493.207C671.381 545.552 621.669 586.349 563.508 610.44C505.346 634.532 441.346 640.835 379.602 628.554C317.857 616.272 261.142 585.957 216.627 541.441C172.111 496.926 141.796 440.211 129.514 378.466C117.233 316.722 123.536 252.722 147.628 194.56C171.719 136.398 212.517 86.6867 264.861 51.7114C317.205 16.7361 378.745 -1.93192 441.699 -1.93188V61.7283C391.336 61.7282 342.104 76.6626 300.229 104.643C258.353 132.623 225.715 172.393 206.442 218.922C187.169 265.452 182.126 316.651 191.951 366.047C201.777 415.442 226.029 460.815 261.641 496.427C297.253 532.039 342.626 556.291 392.021 566.117C441.417 575.942 492.616 570.899 539.146 551.626C585.675 532.353 625.445 499.715 653.425 457.84C681.405 415.964 696.34 366.732 696.34 316.369H760Z" fill="url(#paint1_linear_1_4)"></path><path d="M440.73 126.931C335.553 126.931 250.33 212.153 250.33 317.303C250.33 422.48 335.553 507.731 440.73 507.731V444.27C370.606 444.27 313.8 387.427 313.8 317.331C313.8 247.234 370.606 190.4 440.73 190.4C510.864 190.4 567.67 247.234 567.67 317.331L631.13 317.303C631.13 212.153 545.917 126.931 440.73 126.931Z" fill="url(#paint2_linear_1_4)"></path></g><defs><linearGradient id="paint0_linear_1_4" x1="224.12" y1="317.302" x2="224.12" y2="760.557" gradientUnits="userSpaceOnUse"><stop stop-color="#F3E4FF"></stop><stop offset="1" stop-color="#A9D2F6"></stop></linearGradient><linearGradient id="paint1_linear_1_4" x1="441.699" y1="-1.93188" x2="441.699" y2="634.67" gradientUnits="userSpaceOnUse"><stop stop-color="#F3E4FF"></stop><stop offset="1" stop-color="#A9D2F6"></stop></linearGradient><linearGradient id="paint2_linear_1_4" x1="440.73" y1="126.931" x2="440.73" y2="507.731" gradientUnits="userSpaceOnUse"><stop stop-color="#F3E4FF"></stop><stop offset="1" stop-color="#A9D2F6"></stop></linearGradient></defs></svg>