<svg width="1533" height="211" viewBox="0 0 1533 211" fill="none" xmlns="http://www.w3.org/2000/svg">
<path d="M77.7982 48.4486V28.3027H0.589844V48.4486H28.2773V160.115H50.1107V48.4486H77.7982Z" fill="white"/>
<path d="M195.3 28.3027H173.258V82.9069H118.466V28.3027H96.4248V160.115H118.466V105.136H173.258V160.115H195.3V28.3027Z" fill="white"/>
<path d="M247.261 50.3236H313.157V28.3027H225.22V160.115H313.157V138.074H247.261V105.136H302.053V83.2819H247.261V50.3236Z" fill="white"/>
<path d="M437.44 161.99C458.711 161.99 478.482 148.261 478.482 123.011C478.482 107.386 470.961 94.1984 457.023 87.8026C447.607 83.4692 438.377 83.4692 437.44 83.4692C427.648 83.4692 418.232 77.6359 418.232 66.7192C418.232 54.4692 427.086 48.4484 437.44 48.4484C447.419 48.4484 455.877 53.3442 456.273 64.2609H478.107C477.732 41.8651 460.211 26.4067 437.44 26.4067C416.148 26.4067 396.19 41.6567 396.19 66.7192C396.19 82.3442 403.919 94.0109 417.669 100.428C427.273 104.761 436.294 104.761 437.44 104.761C446.273 105.136 456.648 111.907 456.648 123.011C456.648 133.365 447.607 139.969 437.44 139.969C427.648 139.969 418.607 134.511 418.232 123.573H396.19C396.565 148.261 414.648 161.428 437.44 161.99Z" fill="white"/>
<path d="M602.393 28.3027H580.351V82.9069H525.559V28.3027H503.518V160.115H525.559V105.136H580.351V160.115H602.393V28.3027Z" fill="white"/>
<path d="M692.187 25.2817C605.395 25.2817 605.187 160.49 692.187 160.49C778.812 160.49 778.625 25.2817 692.187 25.2817ZM692.187 139.219C635.145 139.219 635.333 46.7609 692.187 46.7609C749.25 46.7609 749.25 139.219 692.187 139.219Z" fill="white"/>
<path d="M902.904 165.386L955.633 28.3027H931.904L902.904 106.074L873.904 28.3027H849.424L820.424 106.074L791.612 28.3027H767.883L820.424 165.386L861.674 56.9277L902.904 165.386Z" fill="white"/>
<path d="M1032.45 139.969C1008.16 139.969 988.761 122.448 988.761 94.1984C988.761 67.6567 1005.32 48.4484 1032.45 48.4484C1044.49 48.4484 1055.62 53.3442 1063.51 61.2609L1078.95 45.8026C1067.09 33.7609 1050.72 26.4067 1032.45 26.4067C993.845 26.4067 966.345 54.4692 966.345 94.1984C966.345 135.636 996.095 161.99 1032.45 161.99C1050.72 161.99 1067.09 154.657 1078.95 142.782L1063.51 127.157C1055.62 135.073 1044.49 139.969 1032.45 139.969Z" fill="white"/>
<path d="M1162.38 144.865L1168.21 160.115H1191.94L1139.21 24.5317L1086.67 160.115H1110.4L1116.04 144.865H1162.38ZM1123.21 125.844L1139.21 80.0734L1155.21 125.844H1123.21Z" fill="white"/>
<path d="M1243.34 161.99C1264.61 161.99 1284.38 148.448 1284.38 123.198C1284.38 107.573 1276.86 94.1984 1262.92 87.8026C1253.51 83.4692 1244.28 83.4692 1243.34 83.4692C1233.55 83.4692 1224.13 77.6359 1224.13 66.7192C1224.13 54.4692 1232.99 48.4484 1243.34 48.4484C1253.32 48.4484 1261.78 53.3442 1262.17 64.2609H1284.01C1283.63 41.8651 1266.11 26.4067 1243.34 26.4067C1222.05 26.4067 1202.09 41.6567 1202.09 66.7192C1202.09 82.3442 1209.82 94.0109 1223.57 100.428C1233.17 104.761 1242.19 104.761 1243.34 104.761C1252.17 105.136 1262.55 112.094 1262.55 123.198C1262.55 133.573 1253.51 139.969 1243.34 139.969C1233.55 139.969 1224.51 134.511 1224.13 123.573H1202.09C1202.46 148.261 1220.55 161.428 1243.34 161.99Z" fill="white"/>
<mask id="mask0_798_120" style="mask-type:luminance" maskUnits="userSpaceOnUse" x="1287" y="17" width="246" height="177">
<path d="M1287.05 17.4995H1532.38V193.5H1287.05V17.4995Z" fill="white"/>
</mask>
<g mask="url(#mask0_798_120)">
<mask id="mask1_798_120" style="mask-type:luminance" maskUnits="userSpaceOnUse" x="1287" y="-37" width="246" height="285">
<path d="M1359.9 -35.8153L1531.28 18.1178L1459.33 246.731L1287.95 192.793L1359.9 -35.8153Z" fill="white" stroke="white" stroke-width="1.33333"/>
</mask>
<g mask="url(#mask1_798_120)">
<mask id="mask2_798_120" style="mask-type:luminance" maskUnits="userSpaceOnUse" x="1287" y="-37" width="246" height="285">
<path d="M1360.14 -35.7426L1531.28 18.1176L1459.33 246.731L1288.19 192.871L1360.14 -35.7426Z" fill="white" stroke="white" stroke-width="1.33333"/>
</mask>
<g mask="url(#mask2_798_120)">
<mask id="mask3_798_120" style="mask-type:luminance" maskUnits="userSpaceOnUse" x="1287" y="17" width="246" height="177">
<path d="M1288.27 192.624L1342.11 21.5536L1531.2 18.3638L1477.37 189.44L1288.27 192.624Z" fill="white" stroke="white" stroke-width="1.33333"/>
</mask>
<g mask="url(#mask3_798_120)">
<path d="M1477.86 190.098L1532.12 17.6817L1341.62 20.8952L1287.36 193.307L1477.86 190.098Z" stroke="white" stroke-width="38"/>
</g>
</g>
</g>
</g>
<mask id="mask4_798_120" style="mask-type:luminance" maskUnits="userSpaceOnUse" x="1358" y="0" width="19" height="211">
<path d="M1358.42 0.733887H1376.77V210.989H1358.42V0.733887Z" fill="white"/>
</mask>
<g mask="url(#mask4_798_120)">
<mask id="mask5_798_120" style="mask-type:luminance" maskUnits="userSpaceOnUse" x="1358" y="0" width="19" height="211">
<path d="M1363.42 0.733887H1371.77C1374.53 0.733887 1376.77 2.97347 1376.77 5.73389V205.953C1376.77 208.713 1374.53 210.953 1371.77 210.953H1363.42C1360.66 210.953 1358.42 208.713 1358.42 205.953V5.73389C1358.42 2.97347 1360.66 0.733887 1363.42 0.733887Z" fill="white"/>
</mask>
<g mask="url(#mask5_798_120)">
<path d="M1358.42 0.733887H1376.77V210.916H1358.42V0.733887Z" fill="#FF66C4"/>
</g>
</g>
<mask id="mask6_798_120" style="mask-type:luminance" maskUnits="userSpaceOnUse" x="1388" y="0" width="19" height="211">
<path d="M1388.04 0.733887H1406.39V210.989H1388.04V0.733887Z" fill="white"/>
</mask>
<g mask="url(#mask6_798_120)">
<mask id="mask7_798_120" style="mask-type:luminance" maskUnits="userSpaceOnUse" x="1388" y="0" width="19" height="211">
<path d="M1393.04 0.733887H1401.39C1404.15 0.733887 1406.39 2.97347 1406.39 5.73389V205.953C1406.39 208.713 1404.15 210.953 1401.39 210.953H1393.04C1390.27 210.953 1388.04 208.713 1388.04 205.953V5.73389C1388.04 2.97347 1390.27 0.733887 1393.04 0.733887Z" fill="white"/>
</mask>
<g mask="url(#mask7_798_120)">
<path d="M1388.04 0.733887H1406.39V210.916H1388.04V0.733887Z" fill="#FF914D"/>
</g>
</g>
<mask id="mask8_798_120" style="mask-type:luminance" maskUnits="userSpaceOnUse" x="1418" y="0" width="19" height="211">
<path d="M1418.04 0.0463867H1436.39V210.302H1418.04V0.0463867Z" fill="white"/>
</mask>
<g mask="url(#mask8_798_120)">
<mask id="mask9_798_120" style="mask-type:luminance" maskUnits="userSpaceOnUse" x="1418" y="0" width="19" height="211">
<path d="M1423.04 0.0463867H1431.39C1434.15 0.0463867 1436.39 2.28597 1436.39 5.04639V205.265C1436.39 208.026 1434.15 210.265 1431.39 210.265H1423.04C1420.28 210.265 1418.04 208.026 1418.04 205.265V5.04639C1418.04 2.28597 1420.28 0.0463867 1423.04 0.0463867Z" fill="white"/>
</mask>
<g mask="url(#mask9_798_120)">
<path d="M1418.04 0.0463867H1436.39V210.229H1418.04V0.0463867Z" fill="#38B6FF"/>
</g>
</g>
<mask id="mask10_798_120" style="mask-type:luminance" maskUnits="userSpaceOnUse" x="1448" y="0" width="19" height="211">
<path d="M1448.04 0.733887H1466.4V210.989H1448.04V0.733887Z" fill="white"/>
</mask>
<g mask="url(#mask10_798_120)">
<mask id="mask11_798_120" style="mask-type:luminance" maskUnits="userSpaceOnUse" x="1448" y="0" width="19" height="211">
<path d="M1453.04 0.733887H1461.4C1464.16 0.733887 1466.4 2.97347 1466.4 5.73389V205.953C1466.4 208.713 1464.16 210.953 1461.4 210.953H1453.04C1450.28 210.953 1448.04 208.713 1448.04 205.953V5.73389C1448.04 2.97347 1450.28 0.733887 1453.04 0.733887Z" fill="white"/>
</mask>
<g mask="url(#mask11_798_120)">
<path d="M1448.04 0.733887H1466.4V210.916H1448.04V0.733887Z" fill="#8C52FF"/>
</g>
</g>
</svg>
