<svg width="129" height="128" viewBox="0 0 129 128" fill="none" xmlns="http://www.w3.org/2000/svg">
<g clip-path="url(#clip0_5721_22273)">
<path d="M61.9585 12.5933C26.9008 13.8358 -0.513904 43.2935 0.730048 78.3936L0.756567 78.3926C0.750781 78.7288 0.753936 79.0676 0.766008 79.4082C1.52802 100.91 37.6722 113.663 74.5358 112.357C111.398 111.05 128.488 96.41 127.726 74.9087C127.714 74.5681 127.697 74.2298 127.676 73.8946L127.69 73.8941C126.446 38.7981 97.015 11.3509 61.9585 12.5933Z" fill="#B1D8FC"/>
<path d="M23.6619 122.493L14.0569 73.3228L104.232 57.0549L113.701 106.635L23.6619 122.493Z" fill="#E1D7FB"/>
<path d="M64.5597 93.044L14.9104 73.8181L104.068 57.55L64.5597 93.044Z" fill="#5938B7"/>
<path d="M47.0886 28.6443L14.5864 73.4151L104.199 56.8813L54.5411 27.1221C52.0378 25.6219 48.8031 26.2826 47.0886 28.6443Z" fill="#E1D7FB"/>
<mask id="mask0_5721_22273" style="mask-type:alpha" maskUnits="userSpaceOnUse" x="14" y="15" width="90" height="77">
<path d="M64.3341 91.8118L14.6847 72.5859V29.285L79.4733 15.6841L103.842 56.3179L64.3341 91.8118Z" fill="#074B9F"/>
</mask>
<g mask="url(#mask0_5721_22273)">
<path d="M77.6077 23.6854L95.8944 94.3034L39.6712 105.252L35.6967 88.9698L22.6319 35.4468L77.6077 23.6854Z" fill="white"/>
</g>
<path d="M68.7917 84.1355L113.4 105.614L113.4 106.493L23.6768 122.534L23.1888 121.371L55.2493 86.7093C58.7081 82.9699 64.2022 81.9257 68.7917 84.1355Z" fill="#A98DF6"/>
<path d="M113.4 105.614L68.7919 84.1355C64.2025 81.9257 58.7084 82.9699 55.2496 86.7093L23.1891 121.371" stroke="#5938B7" stroke-width="0.8"/>
<path d="M77.6161 60.8586C77.2539 60.9243 76.8852 60.9283 76.5097 60.8707C76.137 60.8125 75.7792 60.6638 75.4366 60.4245C75.0939 60.1853 74.788 59.8334 74.5188 59.3689C74.2522 58.9039 74.0456 58.2985 73.899 57.5526C73.7602 56.8462 73.7068 56.2052 73.7388 55.6295C73.7734 55.0533 73.8868 54.5506 74.0789 54.1214C74.2705 53.6895 74.5354 53.3377 74.8734 53.066C75.2115 52.7942 75.6151 52.6123 76.0843 52.5201C76.5666 52.4253 77.0135 52.436 77.4251 52.5522C77.8367 52.6685 78.1913 52.8711 78.489 53.1603C78.7894 53.4489 79.0131 53.8005 79.1603 54.2151L77.9545 54.452C77.8065 54.1307 77.5902 53.8872 77.3058 53.7213C77.0214 53.5555 76.6841 53.5109 76.294 53.5875C75.701 53.7041 75.2892 54.0533 75.0586 54.6351C74.8306 55.2165 74.8057 55.9673 74.9838 56.8877L75.0431 56.8761C75.1378 56.6193 75.2708 56.3906 75.4421 56.1899C75.6156 55.9861 75.8203 55.8159 76.0562 55.6792C76.2943 55.5393 76.5543 55.4417 76.8364 55.3862C77.3055 55.2941 77.7524 55.3253 78.177 55.48C78.6037 55.6316 78.9698 55.8854 79.2752 56.2415C79.5806 56.5976 79.784 57.034 79.8855 57.5506C79.9871 58.0672 79.9617 58.5581 79.8095 59.0232C79.6599 59.4879 79.3983 59.8842 79.0248 60.2122C78.6507 60.5376 78.1811 60.753 77.6161 60.8586ZM77.4101 59.8314C77.7211 59.7703 77.9842 59.6392 78.1993 59.4382C78.4143 59.2372 78.5677 58.9935 78.6592 58.7072C78.7508 58.421 78.7653 58.1184 78.7026 57.7994C78.6415 57.4884 78.5159 57.2188 78.326 56.9906C78.1387 56.7619 77.9091 56.5962 77.6371 56.4936C77.3677 56.3905 77.0788 56.3693 76.7704 56.4299C76.5358 56.476 76.3272 56.5635 76.1445 56.6925C75.9644 56.8209 75.8148 56.979 75.6957 57.1667C75.5765 57.3543 75.4936 57.5595 75.4471 57.7822C75.4026 58.0017 75.4026 58.2248 75.4472 58.4515C75.5067 58.7546 75.6317 59.0216 75.8222 59.2524C76.0153 59.4827 76.2499 59.6529 76.5261 59.7629C76.8044 59.8697 77.0991 59.8925 77.4101 59.8314Z" fill="#5938B7"/>
<path d="M70.558 62.2456C70.0624 62.343 69.5984 62.3357 69.1657 62.2236C68.7352 62.1083 68.3697 61.9064 68.0694 61.6178C67.769 61.3291 67.5687 60.9715 67.4685 60.545L68.6546 60.312C68.7519 60.6542 68.9623 60.9099 69.2857 61.079C69.6091 61.2481 69.9659 61.2944 70.356 61.2177C70.667 61.1566 70.9284 61.0313 71.1403 60.8418C71.3543 60.6492 71.505 60.4129 71.5923 60.133C71.6823 59.8525 71.6954 59.5502 71.6317 59.226C71.567 58.8965 71.438 58.6166 71.245 58.3863C71.0519 58.156 70.8156 57.9916 70.5362 57.8932C70.2595 57.7943 69.9601 57.7751 69.638 57.8356C69.3929 57.8838 69.1547 57.9744 68.9235 58.1074C68.6923 58.2405 68.5138 58.3905 68.3878 58.5576L67.2364 58.6114L66.8893 54.442L71.341 53.5672L71.5469 54.6149L68.1112 55.29L68.2994 57.6059L68.3468 57.5966C68.4749 57.4127 68.6593 57.2437 68.9001 57.0896C69.1435 56.935 69.4154 56.8282 69.7158 56.7692C70.2087 56.6723 70.6706 56.7034 71.1015 56.8623C71.5351 57.0208 71.9024 57.2812 72.2036 57.6436C72.5069 58.0028 72.7087 58.4449 72.8092 58.97C72.9149 59.494 72.8882 59.9851 72.7291 60.4434C72.5727 60.9012 72.307 61.2901 71.9319 61.6102C71.5589 61.9271 71.1009 62.1389 70.558 62.2456Z" fill="#5938B7"/>
<path d="M60.0984 62.5433L59.9041 61.5549L62.3169 55.3403L63.0958 55.1872L63.3817 56.6421L62.8875 56.7393L61.1633 61.1925L61.1758 61.2558L65.9715 60.3134L66.175 61.3492L60.0984 62.5433ZM64.248 63.3704L63.8782 61.4885L63.7976 61.0362L62.6649 55.2719L63.8233 55.0443L65.4143 63.1412L64.248 63.3704Z" fill="#5938B7"/>
<path d="M53.2977 65.6372C52.7547 65.7439 52.2513 65.7457 51.7876 65.6424C51.3265 65.5387 50.9394 65.3451 50.6264 65.0617C50.3155 64.7751 50.1076 64.4136 50.0026 63.977L51.244 63.7331C51.307 63.9698 51.4283 64.1622 51.608 64.3103C51.7897 64.4553 52.0086 64.5519 52.2644 64.6002C52.5203 64.6485 52.7932 64.6441 53.0831 64.5871C53.402 64.5245 53.6732 64.4137 53.8965 64.2548C54.1225 64.0954 54.286 63.9032 54.3868 63.6781C54.4871 63.4503 54.5117 63.2059 54.4604 62.945C54.407 62.6735 54.2903 62.4487 54.1102 62.2706C53.9323 62.0893 53.6985 61.9655 53.409 61.8992C53.1221 61.8324 52.7916 61.8358 52.4173 61.9093L51.7333 62.0437L51.5375 61.0474L52.2215 60.913C52.522 60.854 52.7749 60.7481 52.9804 60.5955C53.1884 60.4424 53.3381 60.257 53.4295 60.0392C53.5203 59.8187 53.5401 59.5781 53.4888 59.3171C53.4396 59.0667 53.3402 58.8604 53.1906 58.6982C53.0431 58.5328 52.8562 58.4176 52.6299 58.3526C52.4063 58.287 52.1561 58.2814 51.8793 58.3358C51.6157 58.3876 51.3789 58.4848 51.1687 58.6274C50.9607 58.7668 50.8032 58.9401 50.696 59.1473C50.5884 59.3519 50.5537 59.5791 50.5918 59.8289L49.4097 60.0612C49.3369 59.6211 49.3904 59.2109 49.5703 58.8306C49.7528 58.4498 50.0286 58.126 50.3977 57.8591C50.7669 57.5922 51.1992 57.4101 51.6947 57.3127C52.2139 57.2107 52.6819 57.2241 53.0987 57.353C53.5176 57.4787 53.8628 57.6887 54.1341 57.9831C54.4081 58.2769 54.5829 58.6231 54.6585 59.0216C54.7502 59.4744 54.6993 59.8841 54.5058 60.2506C54.3149 60.6166 54.0192 60.8951 53.6188 61.086L53.6312 61.1493C54.1849 61.1253 54.6433 61.257 55.0064 61.5443C55.3721 61.831 55.6038 62.2303 55.7017 62.7422C55.7918 63.1871 55.7464 63.6107 55.5654 64.0131C55.3871 64.415 55.103 64.7596 54.7133 65.047C54.323 65.3317 53.8512 65.5285 53.2977 65.6372Z" fill="#5938B7"/>
<path d="M43.6292 67.4224L43.4552 66.5368L45.6372 63.1597C45.8691 62.7938 46.0572 62.4763 46.2014 62.2071C46.3477 61.9347 46.4476 61.6837 46.501 61.4542C46.5545 61.2247 46.5579 60.9914 46.5113 60.7541C46.4585 60.4853 46.3496 60.2658 46.1848 60.0956C46.0194 59.9228 45.817 59.8052 45.5775 59.7427C45.3375 59.6776 45.0805 59.672 44.8064 59.7259C44.5164 59.7829 44.2751 59.8919 44.0822 60.053C43.8894 60.2141 43.7563 60.4141 43.6828 60.653C43.6093 60.8919 43.601 61.1563 43.658 61.4462L42.4917 61.6754C42.3948 61.1826 42.4235 60.7293 42.5776 60.3158C42.7318 59.9023 42.9866 59.5552 43.3421 59.2745C43.697 58.9913 44.1262 58.8002 44.6296 58.7012C45.1383 58.6013 45.6064 58.6147 46.0337 58.7415C46.4631 58.8652 46.8214 59.0795 47.1086 59.3844C47.3952 59.6867 47.5812 60.0553 47.6667 60.4902C47.7257 60.7906 47.7268 61.0956 47.6699 61.4052C47.6157 61.7143 47.4849 62.0726 47.2775 62.4801C47.0697 62.8851 46.7685 63.3864 46.374 63.984L45.0959 65.9844L45.1075 66.0437L48.7527 65.3274L48.9586 66.3751L43.6292 67.4224Z" fill="#5938B7"/>
<path d="M39.8478 59.7556L41.4389 67.8525L40.2133 68.0934L38.863 61.2221L38.8156 61.2314L37.127 62.8772L36.897 61.707L38.6578 59.9895L39.8478 59.7556Z" fill="#5938B7"/>
</g>
<defs>
<clipPath id="clip0_5721_22273">
<rect width="128" height="128" fill="white" transform="translate(0.194824)"/>
</clipPath>
</defs>
</svg>
