<svg width="255" height="36" viewBox="0 0 255 36" fill="none" xmlns="http://www.w3.org/2000/svg">
<path d="M12.8955 8.36607V5.02344H0.0849609V8.36607H4.67892V26.894H8.30155V8.36607H12.8955Z" fill="black"/>
<path d="M32.3914 5.02344H28.7342V14.0835H19.643V5.02344H15.9858V26.894H19.643V17.7718H28.7342V26.894H32.3914V5.02344Z" fill="black"/>
<path d="M41.0129 8.67717H51.9465V5.02344H37.3557V26.894H51.9465V23.2368H41.0129V17.7718H50.104V14.1457H41.0129V8.67717Z" fill="black"/>
<path d="M72.5679 27.2047C76.0972 27.2047 79.3776 24.9268 79.3776 20.7372C79.3776 18.1447 78.1297 15.9566 75.8172 14.8954C74.2548 14.1764 72.7235 14.1764 72.5679 14.1764C70.9433 14.1764 69.3808 13.2085 69.3808 11.3972C69.3808 9.36468 70.8499 8.36569 72.5679 8.36569C74.2237 8.36569 75.6271 9.17802 75.6928 10.9893H79.3154C79.2532 7.27337 76.3461 4.7085 72.5679 4.7085C69.0352 4.7085 65.7236 7.2388 65.7236 11.3972C65.7236 13.9897 67.0061 15.9255 69.2875 16.9902C70.881 17.7092 72.3778 17.7092 72.5679 17.7092C74.0336 17.7714 75.755 18.8948 75.755 20.7372C75.755 22.4552 74.2548 23.551 72.5679 23.551C70.9433 23.551 69.443 22.6453 69.3808 20.8306H65.7236C65.7859 24.9268 68.7863 27.1114 72.5679 27.2047Z" fill="black"/>
<path d="M99.9373 5.02344H96.2801V14.0835H87.1889V5.02344H83.5317V26.894H87.1889V17.7718H96.2801V26.894H99.9373V5.02344Z" fill="black"/>
<path d="M114.836 4.52197C100.435 4.52197 100.401 26.956 114.836 26.956C129.209 26.956 129.178 4.52197 114.836 4.52197ZM114.836 23.4267C105.371 23.4267 105.403 8.08584 114.836 8.08584C124.304 8.08584 124.304 23.4267 114.836 23.4267Z" fill="black"/>
<path d="M149.798 27.7686L158.547 5.02344H154.61L149.798 17.9273L144.987 5.02344H140.925L136.113 17.9273L131.333 5.02344H127.396L136.113 27.7686L142.958 9.77295L149.798 27.7686Z" fill="black"/>
<path d="M171.293 23.551C167.262 23.551 164.044 20.6439 164.044 15.9566C164.044 11.5528 166.792 8.36569 171.293 8.36569C173.291 8.36569 175.137 9.17802 176.447 10.4916L179.008 7.92669C177.041 5.92871 174.324 4.7085 171.293 4.7085C164.888 4.7085 160.325 9.36468 160.325 15.9566C160.325 22.832 165.261 27.2047 171.293 27.2047C174.324 27.2047 177.041 25.988 179.008 24.0176L176.447 21.4251C175.137 22.7387 173.291 23.551 171.293 23.551Z" fill="black"/>
<path d="M192.85 24.3639L193.818 26.8942H197.756L189.007 4.39795L180.289 26.8942H184.226L185.163 24.3639H192.85ZM186.352 21.2079L189.007 13.6135L191.661 21.2079H186.352Z" fill="black"/>
<path d="M206.284 27.2047C209.814 27.2047 213.094 24.9579 213.094 20.7683C213.094 18.1758 211.846 15.9566 209.534 14.8954C207.971 14.1764 206.44 14.1764 206.284 14.1764C204.66 14.1764 203.097 13.2085 203.097 11.3972C203.097 9.36468 204.566 8.36569 206.284 8.36569C207.94 8.36569 209.343 9.17802 209.409 10.9893H213.032C212.969 7.27337 210.062 4.7085 206.284 4.7085C202.751 4.7085 199.44 7.2388 199.44 11.3972C199.44 13.9897 200.722 15.9255 203.004 16.9902C204.597 17.7092 206.094 17.7092 206.284 17.7092C207.75 17.7714 209.471 18.9259 209.471 20.7683C209.471 22.4898 207.971 23.551 206.284 23.551C204.66 23.551 203.159 22.6453 203.097 20.8306H199.44C199.502 24.9268 202.503 27.1114 206.284 27.2047Z" fill="black"/>
<mask id="mask0_732_318" style="mask-type:luminance" maskUnits="userSpaceOnUse" x="213" y="3" width="42" height="30">
<path d="M213.537 3.23096H254.243V32.4332H213.537V3.23096Z" fill="white"/>
</mask>
<g mask="url(#mask0_732_318)">
<mask id="mask1_732_318" style="mask-type:luminance" maskUnits="userSpaceOnUse" x="213" y="-6" width="42" height="48">
<path d="M254.199 3.26118L242.194 41.4042L213.548 32.3882L225.552 -5.75391L254.199 3.26118Z" fill="white"/>
</mask>
<g mask="url(#mask1_732_318)">
<mask id="mask2_732_318" style="mask-type:luminance" maskUnits="userSpaceOnUse" x="213" y="-6" width="42" height="48">
<path d="M254.199 3.26129L242.194 41.4043L213.588 32.4013L225.591 -5.7417L254.199 3.26129Z" fill="white"/>
</mask>
<g mask="url(#mask2_732_318)">
<mask id="mask3_732_318" style="mask-type:luminance" maskUnits="userSpaceOnUse" x="213" y="3" width="42" height="30">
<path d="M245.196 31.8684L254.199 3.26074L222.591 3.79394L213.588 32.4008L245.196 31.8684Z" fill="white"/>
</mask>
<g mask="url(#mask3_732_318)">
<path d="M245.196 31.8688L254.198 3.26115L222.59 3.79436L213.587 32.4012L245.196 31.8688Z" stroke="black" stroke-width="5.5"/>
</g>
</g>
</g>
</g>
<mask id="mask4_732_318" style="mask-type:luminance" maskUnits="userSpaceOnUse" x="225" y="0" width="4" height="36">
<path d="M225.379 0.449219H228.424V35.3351H225.379V0.449219Z" fill="white"/>
</mask>
<g mask="url(#mask4_732_318)">
<mask id="mask5_732_318" style="mask-type:luminance" maskUnits="userSpaceOnUse" x="225" y="0" width="4" height="36">
<path d="M226.209 0.449219H227.594C228.052 0.449219 228.424 0.820815 228.424 1.27883V34.4995C228.424 34.9575 228.052 35.3291 227.594 35.3291H226.209C225.751 35.3291 225.379 34.9575 225.379 34.4995V1.27883C225.379 0.820815 225.751 0.449219 226.209 0.449219Z" fill="white"/>
</mask>
<g mask="url(#mask5_732_318)">
<path d="M225.379 0.449219H228.424V35.323H225.379V0.449219Z" fill="#FF66C4"/>
</g>
</g>
<mask id="mask6_732_318" style="mask-type:luminance" maskUnits="userSpaceOnUse" x="230" y="0" width="4" height="36">
<path d="M230.293 0.449219H233.337V35.3351H230.293V0.449219Z" fill="white"/>
</mask>
<g mask="url(#mask6_732_318)">
<mask id="mask7_732_318" style="mask-type:luminance" maskUnits="userSpaceOnUse" x="230" y="0" width="4" height="36">
<path d="M231.123 0.449219H232.508C232.966 0.449219 233.337 0.820815 233.337 1.27883V34.4995C233.337 34.9575 232.966 35.3291 232.508 35.3291H231.123C230.664 35.3291 230.293 34.9575 230.293 34.4995V1.27883C230.293 0.820815 230.664 0.449219 231.123 0.449219Z" fill="white"/>
</mask>
<g mask="url(#mask7_732_318)">
<path d="M230.293 0.449219H233.337V35.323H230.293V0.449219Z" fill="#FF914D"/>
</g>
</g>
<mask id="mask8_732_318" style="mask-type:luminance" maskUnits="userSpaceOnUse" x="235" y="0" width="4" height="36">
<path d="M235.271 0.334961H238.316V35.2209H235.271V0.334961Z" fill="white"/>
</mask>
<g mask="url(#mask8_732_318)">
<mask id="mask9_732_318" style="mask-type:luminance" maskUnits="userSpaceOnUse" x="235" y="0" width="4" height="36">
<path d="M236.1 0.334961H237.486C237.944 0.334961 238.316 0.706557 238.316 1.16457V34.3852C238.316 34.8432 237.944 35.2148 237.486 35.2148H236.1C235.642 35.2148 235.271 34.8432 235.271 34.3852V1.16457C235.271 0.706557 235.642 0.334961 236.1 0.334961Z" fill="white"/>
</mask>
<g mask="url(#mask9_732_318)">
<path d="M235.271 0.334961H238.316V35.2088H235.271V0.334961Z" fill="#38B6FF"/>
</g>
</g>
<mask id="mask10_732_318" style="mask-type:luminance" maskUnits="userSpaceOnUse" x="240" y="0" width="4" height="36">
<path d="M240.249 0.449219H243.294V35.3351H240.249V0.449219Z" fill="white"/>
</mask>
<g mask="url(#mask10_732_318)">
<mask id="mask11_732_318" style="mask-type:luminance" maskUnits="userSpaceOnUse" x="240" y="0" width="4" height="36">
<path d="M241.079 0.449219H242.465C242.923 0.449219 243.294 0.820815 243.294 1.27883V34.4995C243.294 34.9575 242.923 35.3291 242.465 35.3291H241.079C240.621 35.3291 240.249 34.9575 240.249 34.4995V1.27883C240.249 0.820815 240.621 0.449219 241.079 0.449219Z" fill="white"/>
</mask>
<g mask="url(#mask11_732_318)">
<path d="M240.249 0.449219H243.294V35.323H240.249V0.449219Z" fill="#8C52FF"/>
</g>
</g>
</svg>
